<svg id="a" xmlns="http://www.w3.org/2000/svg" viewBox="0 0 150 150">
  <defs>
    <style>
      .cls-1 {
        fill: #d9000d;
      }

      .cls-2 {
        fill: none;
      }
    </style>
  </defs>
  <g id="b">
    <g id="c">
      <path id="d" class="cls-2" d="M0,0H150V150H0V0Z"/>
    </g>
  </g>
  <path class="cls-1" d="M14.58,14.33v123.14h123.13V14.33H14.58Zm115.44,45.08h-54.42c0-28.58-12.29-32.51-25.38-32.51s-23.71,10.62-23.71,23.71,10.62,23.7,23.71,23.7h50.67s28.86,1.03,28.86,28.78-27.76,26.66-27.76,26.66H50.58c-8.01,.51-15.84-2.5-21.44-8.24-7.43-7.43-7.69-18.15-7.69-29.41h3.17c0,7.69-.2,20.27,6.45,26.92,5.11,5.33,12.34,8.08,19.69,7.49,13.38-.33,24.14-11.12,24.41-24.51-.12-13.27-10.78-24.03-24.06-24.27l-.07-.04c-14.96,0-27.96-12.12-27.96-27.08s13-27.09,27.96-27.09l.64-.12h46.45c37.93,0,31.88,36.01,31.88,36.01Z"/>
</svg>